<?xml version="1.0" encoding="UTF-8" standalone="no"?>
<!-- Created with Inkscape (http://www.inkscape.org/) -->

<svg
   width="86.297997mm"
   height="18.014999mm"
   viewBox="0 0 86.297996 18.014999"
   version="1.1"
   id="svg5"
   inkscape:version="1.1.2 (1:1.1+202202050950+0a00cf5339)"
   sodipodi:docname="logoheader.svg"
   xmlns:inkscape="http://www.inkscape.org/namespaces/inkscape"
   xmlns:sodipodi="http://sodipodi.sourceforge.net/DTD/sodipodi-0.dtd"
   xmlns="http://www.w3.org/2000/svg"
   xmlns:svg="http://www.w3.org/2000/svg">
  <sodipodi:namedview
     id="namedview7"
     pagecolor="#ffffff"
     bordercolor="#666666"
     borderopacity="1.0"
     inkscape:pageshadow="2"
     inkscape:pageopacity="0.0"
     inkscape:pagecheckerboard="0"
     inkscape:document-units="mm"
     showgrid="false"
     width="88.817mm"
     inkscape:zoom="2.078763"
     inkscape:cx="166.44514"
     inkscape:cy="35.117038"
     inkscape:window-width="1920"
     inkscape:window-height="1004"
     inkscape:window-x="0"
     inkscape:window-y="45"
     inkscape:window-maximized="1"
     inkscape:current-layer="layer1" />
  <defs
     id="defs2" />
  <g
     inkscape:label="Camada 1"
     inkscape:groupmode="layer"
     id="layer1">
    <g
       id="g984"
       transform="matrix(1.0000063,0,0,1.0000063,-1.6221651,-0.24336494)"
       style="fill:#ffffff">
      <path
         id="rect77005-2-5-92-3"
         style="fill:#ffffff;fill-opacity:1;stroke-width:0.336737;stroke-miterlimit:4;stroke-dasharray:none"
         d="m 2.1504151,4.55503 c -0.2927201,0 -0.5286201,0.23589 -0.5286201,0.52861 v 12.64599 c 0,0.29272 0.2359,0.52862 0.5286201,0.52862 H 14.796416 c 0.29271,0 0.5286,-0.2359 0.5286,-0.52862 v -7.45452 l -0.57528,-0.13215 0.25181,4.92453 -2.97247,-3.93437 -2.9724806,3.93437 0.25182,-4.92453 -4.8061903,1.10325 3.35841,-3.61023 -4.39066,-2.24464 4.8936403,-0.60685 -0.0973,-0.22946 z" />
      <g
         aria-label="visam"
         id="text1551-7-7-9"
         style="font-size:24.7401px;line-height:1.25;stroke-width:0.619">
        <path
           d="M 33.293902,5.6367047 29.261266,16.992411 q -0.148441,0.395842 -0.470062,0.643243 -0.296881,0.222661 -0.717463,0.222661 h -3.191473 q -0.420582,0 -0.742203,-0.222661 -0.296881,-0.247401 -0.445322,-0.643243 L 19.662107,5.6367047 h 3.884195 l 2.25135,7.6446913 q 0.14844,0.544282 0.272141,1.113304 0.1237,0.569023 0.247401,1.088565 h 0.321621 q 0.148441,-0.544282 0.272141,-1.088565 0.148441,-0.569022 0.296881,-1.113304 l 2.201869,-7.6446913 z"
           style="font-weight:bold;font-family:'Exo 2';-inkscape-font-specification:'Exo 2 Bold'"
           id="path11" />
        <path
           d="M 38.711984,5.6367047 V 17.858315 H 35.075189 V 5.6367047 Z m -1.014345,-5.393342 q 1.088565,0 1.088565,1.1133045 v 1.3112254 q 0,1.1133045 -1.088565,1.1133045 h -1.583366 q -1.088565,0 -1.088565,-1.1133045 V 1.3566672 q 0,-1.1133045 1.088565,-1.1133045 z"
           style="font-weight:bold;font-family:'Exo 2';-inkscape-font-specification:'Exo 2 Bold'"
           id="path13" />
        <path
           d="m 46.455611,5.3150834 q 0.890644,0 1.929728,0.07422 1.039085,0.04948 2.028689,0.1484406 0.989604,0.09896 1.756547,0.247401 l -0.247401,2.2760893 q -1.187525,-0.02474 -2.39979,-0.02474 -1.187525,-0.02474 -2.32557,-0.02474 -0.964863,-0.02474 -1.484406,0.02474 -0.519542,0.04948 -0.742203,0.247401 -0.19792,0.1731807 -0.19792,0.6432426 0,0.5442822 0.371101,0.742203 0.371102,0.1731807 1.237005,0.3958419 l 3.191473,0.766943 q 1.533886,0.395841 2.276089,1.187525 0.742203,0.766943 0.742203,2.325569 0,1.533886 -0.569022,2.35031 -0.569022,0.816423 -1.806027,1.138044 -1.237005,0.296882 -3.191473,0.296882 -0.766943,0 -2.276089,-0.07422 -1.509147,-0.07422 -3.315174,-0.371101 l 0.247401,-2.276089 q 0.445322,0.02474 1.138045,0.04948 0.692722,0 1.509146,0 0.816423,0 1.632846,0 1.261746,0 1.929728,-0.04948 0.667983,-0.07422 0.915384,-0.296882 0.247401,-0.222661 0.247401,-0.667982 0,-0.544283 -0.420582,-0.742203 -0.420581,-0.197921 -1.335965,-0.420582 L 44.204262,12.514453 Q 43.041478,12.192831 42.398235,11.698029 41.754992,11.203227 41.482851,10.485764 41.23545,9.7683015 41.23545,8.7786975 q 0,-1.2617451 0.494802,-2.0039482 0.519542,-0.7669431 1.657587,-1.1133045 1.162785,-0.3463614 3.067772,-0.3463614 z"
           id="path15" />
        <path
           d="m 61.398588,5.3150834 q 1.533887,0 2.597711,0.4205817 1.063824,0.3958416 1.608107,1.3854456 0.569022,0.964864 0.569022,2.6719309 V 17.858315 H 63.254096 L 62.734554,15.211124 62.487153,14.840022 V 9.7683015 q 0,-0.8659035 -0.420582,-1.2617451 -0.395842,-0.3958416 -1.533886,-0.3958416 -0.940124,0 -2.35031,0.07422 -1.410185,0.04948 -2.894592,0.1484406 L 54.941422,5.9088458 q 0.890644,-0.1731807 2.053428,-0.2968812 1.162785,-0.1237005 2.32557,-0.1979208 1.162785,-0.09896 2.078168,-0.09896 z m 3.265694,5.0222406 -0.02474,2.053428 -5.442823,0.02474 q -0.667982,0 -0.964864,0.321622 -0.272141,0.321621 -0.272141,0.865903 v 0.593763 q 0,0.618502 0.346362,0.964864 0.346361,0.321621 1.113304,0.321621 0.643243,0 1.385446,-0.272141 0.766943,-0.272141 1.509146,-0.766943 0.742203,-0.494802 1.311225,-1.162785 v 1.583366 q -0.22266,0.371102 -0.667982,0.940124 -0.420582,0.544282 -1.088565,1.088565 -0.667982,0.519542 -1.558626,0.890643 -0.890644,0.371102 -2.028688,0.371102 -1.113305,0 -2.003949,-0.395842 -0.890643,-0.395842 -1.410185,-1.162785 -0.519542,-0.766943 -0.519542,-1.904987 v -1.261746 q 0,-1.459665 0.989604,-2.276089 0.989604,-0.816423 2.721411,-0.816423 z"
           id="path17" />
        <path
           d="m 84.530574,5.3150834 q 1.657587,0 2.52349,0.8659035 0.865904,0.8659035 0.865904,2.5234903 V 17.858315 H 84.283173 V 9.8425218 q 0,-0.7669431 -0.296881,-1.0885644 Q 83.68941,8.407596 82.947207,8.407596 q -0.445321,0 -0.841163,0.1237005 -0.395842,0.1237005 -0.915384,0.3958416 -0.519542,0.2721411 -1.261745,0.742203 L 79.730994,7.6406529 q 1.187525,-1.1627848 2.32557,-1.7318071 1.162784,-0.5937624 2.47401,-0.5937624 z m -12.567971,0.3216213 0.371101,2.4245299 0.371102,0.3216213 V 17.858315 H 69.043271 V 5.6367047 Z m 4.94802,-0.3216213 q 1.632846,0 2.47401,0.8659035 0.865903,0.8411634 0.865903,2.5234903 V 17.858315 H 76.737442 V 9.8425218 q 0,-0.7916832 -0.346361,-1.1133045 -0.321622,-0.3216213 -1.014345,-0.3216213 -0.420581,0 -0.841163,0.1237005 -0.395842,0.09896 -0.940124,0.3711015 -0.519542,0.2721411 -1.286485,0.7669431 L 72.086303,7.6406529 q 1.212265,-1.1627848 2.35031,-1.7318071 1.138044,-0.5937624 2.47401,-0.5937624 z"
           id="path19" />
      </g>
    </g>
  </g>
</svg>
